<?xml version="1.0" encoding="UTF-8"?> <svg xmlns="http://www.w3.org/2000/svg" id="Layer_1" data-name="Layer 1" viewBox="0 0 1109 227"><defs><style> .cls-1 { fill: #0098b1; } </style></defs><path class="cls-1" d="M45.07,91.43H10.13c-3.77,0-6.83,3.06-6.83,6.83v86.39h17.31v-26.9h24.46c24.5,0,39.69-12.65,39.69-33.16s-15.18-33.16-39.69-33.16ZM44.27,143.1h-23.66v-37.02h23.66c15.18,0,23.04,6.79,23.04,18.51s-7.86,18.51-23.04,18.51ZM976.03,148.27c-.29-.5-.66-.95-1.12-1.34l-8.24-6.92c-1.62-1.36-3.91-1.56-5.74-.5l-60.29,34.81c1.82,2.84,3.76,5.59,5.82,8.25l48.75-28.15-40.61,37.57c1.16,1.21,2.35,2.39,3.57,3.54l39.98-36.98-29.48,45.8c1.35,1,2.71,1.97,4.1,2.91l29.95-46.53-19.26,52.92c2.97,1.56,6.02,2.99,9.14,4.29l23.82-65.43c.52-1.42.36-2.97-.37-4.23ZM1003.04,152.94c-.54-.2-1.12-.3-1.72-.3h-10.76c-2.11,0-4,1.32-4.72,3.31l-19.94,54.79c3.2.99,6.46,1.82,9.79,2.49l15.35-42.18-5.54,43.67c1.66.17,3.33.29,5.02.38l5.43-42.79,5.43,42.79c1.68-.09,3.36-.21,5.02-.38l-5.54-43.68,15.36,42.19c3.32-.67,6.59-1.51,9.79-2.49l-19.94-54.79c-.52-1.42-1.64-2.51-3.01-3ZM22.64,66.69c-8.01,0-15.76-3.14-20.11-7.4L0,64.26c4.53,4.7,13.5,7.92,22.64,7.92,15.59,0,22.73-7.66,22.73-16.63,0-22.2-37.53-12.1-37.53-28.82,0-6.09,4.96-11.06,16.11-11.06,5.4,0,11.49,1.65,16.72,5.05l2.18-5.14c-4.88-3.4-12.02-5.4-18.9-5.4C8.45,10.18,1.48,17.93,1.48,26.9c0,22.55,37.53,12.28,37.53,29,0,6.01-4.96,10.8-16.37,10.8ZM718,122.19c-5.73-6.39-13.72-9.46-22.77-9.46-20.78,0-35.96,14.25-35.96,36.36s15.18,36.49,35.96,36.49c9.72,0,17.98-3.33,23.57-10.12v9.19h15.85v-71.11h-16.65v8.66ZM697.09,171.34c-11.99,0-21.04-8.66-21.04-22.24s9.06-22.24,21.04-22.24,21.17,8.66,21.17,22.24-9.06,22.24-21.17,22.24ZM198.81,71.66l-21.42-27.08,19.59-18.72h-7.66l-27.34,24.99V10.18h-6.18v61.48h6.18v-13.06l10.8-9.93,18.46,22.99h7.57ZM127.94,66.69c-6.44,0-12.63-2.26-16.28-5.14l-2.79,4.88c3.74,3.22,11.06,5.66,18.63,5.66,11.93,0,18.9-5.14,18.9-13.06,0-17.59-29.69-8.27-29.69-20.64,0-4.35,3.66-7.58,11.93-7.58,4.7,0,9.49,1.13,13.5,3.92l2.7-4.96c-3.83-2.61-10.27-4.27-16.2-4.27-11.67,0-18.11,5.57-18.11,13.06,0,18.11,29.69,8.71,29.69,20.64,0,4.53-3.57,7.49-12.28,7.49ZM99.46,71.66V25.86h-6.18v8.71c-3.83-5.92-10.1-9.06-17.42-9.06-13.06,0-22.81,9.4-22.81,23.25s9.75,23.34,22.81,23.34c7.57,0,13.93-3.31,17.68-9.49v9.06h5.92ZM76.38,66.61c-9.75,0-17.07-7.14-17.07-17.85s7.31-17.85,17.07-17.85,16.98,7.14,16.98,17.85-7.32,17.85-16.98,17.85ZM1108.9,108.89c-.14-3.39-.42-6.75-.84-10.06l-68.56,12.09c-1.49.26-2.75,1.18-3.48,2.44-.29.5-.49,1.05-.6,1.64l-1.87,10.59c-.37,2.08.61,4.17,2.44,5.22l60.3,34.81c1.55-2.97,2.97-6.03,4.25-9.15l-48.77-28.16,52.87,16.4c.46-1.61.88-3.23,1.27-4.87l-52.04-16.14,54.4,2.63c.19-1.66.34-3.33.46-5.01l-55.26-2.67,55.44-9.77ZM222.27,72.09c7.58,0,13.93-3.31,17.68-9.49v9.06h5.92V25.86h-6.18v8.71c-3.83-5.92-10.1-9.06-17.41-9.06-13.06,0-22.81,9.4-22.81,23.25s9.75,23.34,22.81,23.34ZM222.79,30.91c9.66,0,16.98,7.14,16.98,17.85s-7.32,17.85-16.98,17.85-17.07-7.14-17.07-17.85,7.32-17.85,17.07-17.85ZM1002.76,74.01c.44.37.95.67,1.51.87l10.11,3.68c1.98.72,4.21.13,5.57-1.49l30.19-35.98c-2.69-2.02-5.52-3.88-8.43-5.59l-21.48,25.6,14.98-29.1c-1.51-.73-3.04-1.4-4.59-2.05l-14.55,28.28,7.03-31.02c-1.6-.5-3.21-.96-4.84-1.37l-7.23,31.92V24.33c-3.29-.55-6.64-.94-10.05-1.13v46.96c0,1.52.68,2.91,1.8,3.85ZM1026.55,87.63c.1.57.3,1.12.6,1.64l5.38,9.32c1.06,1.83,3.14,2.8,5.22,2.44l57.4-10.12c-.75-3.31-1.66-6.55-2.72-9.72l-44.19,7.79,40.58-17.03c-.69-1.53-1.41-3.05-2.17-4.54l-39.76,16.69,34.33-26.09c-.92-1.41-1.87-2.79-2.85-4.15l-35.03,26.62,28.83-34.36c-2.23-2.52-4.58-4.94-7.05-7.23l-37.46,44.64c-.97,1.16-1.35,2.67-1.1,4.1ZM975.78,78.87c.58,0,1.16-.1,1.72-.3l10.11-3.68c1.98-.72,3.31-2.61,3.31-4.72V.56c-3.39.15-6.74.45-10.05.89v56.3l-12.23-53.98c-1.63.41-3.25.85-4.85,1.32l12.04,53.14-24.93-48.45c-1.54.67-3.06,1.37-4.57,2.11l25.33,49.22-36.19-43.14c-2.85,1.81-5.6,3.74-8.27,5.78l44.74,53.32c.97,1.16,2.39,1.8,3.85,1.8ZM1026.73,139.15c-.54.2-1.05.49-1.51.87l-8.24,6.92c-1.62,1.36-2.21,3.58-1.49,5.57l16.07,44.15c3.11-1.34,6.13-2.85,9.05-4.52l-11.43-31.4,17.7,27.5c1.39-.95,2.74-1.94,4.07-2.96l-17.2-26.72,23.33,21.58c1.24-1.14,2.43-2.31,3.6-3.51l-24-22.2,28.95,16.72c2.15-2.59,4.14-5.32,5.99-8.15l-40.67-23.48c-1.31-.76-2.86-.87-4.23-.37ZM358.91,72.09c13.41,0,23.25-9.75,23.25-23.34s-9.84-23.25-23.25-23.25-23.34,9.67-23.34,23.25,9.93,23.34,23.34,23.34ZM358.91,30.91c9.75,0,16.98,7.14,16.98,17.85s-7.23,17.85-16.98,17.85-17.07-7.14-17.07-17.85,7.31-17.85,17.07-17.85ZM915.23,154.3l40.67-23.48c1.31-.76,2.18-2.05,2.44-3.48.1-.57.1-1.16,0-1.74l-1.87-10.59c-.37-2.08-1.99-3.71-4.08-4.08l-46.24-8.15c-.39,3.31-.62,6.68-.64,10.09l32.91,5.8-32.65,1.58c.12,1.68.29,3.35.51,5.01l31.74-1.53-30.36,9.42c.36,1.65.78,3.27,1.23,4.88l31.24-9.69-28.96,16.72c1.18,3.18,2.55,6.26,4.07,9.26ZM147.74,149.49c0,14.25-7.86,21.44-19.44,21.44-10.52,0-16.65-6.13-16.65-19.04v-38.35h-16.65v40.62c0,21.44,12.38,31.43,30.63,31.43,9.19,0,17.58-3.46,22.91-9.99v9.06h15.85v-71.11h-16.65v35.96ZM507.03,85.84c-5.46,0-9.45,3.99-9.45,9.46s3.99,9.46,9.45,9.46,9.46-3.99,9.46-9.46-3.99-9.46-9.46-9.46ZM498.64,184.65h16.65v-71.11h-16.65v71.11ZM431.79,91.43h-17.31v86.39c0,3.77,3.06,6.83,6.83,6.83h67.26v-14.65h-56.78v-78.57ZM425.81,45.71v25.95h6.18v-26.56c0-13.15-7.66-19.59-18.81-19.59-7.92,0-14.11,3.22-17.41,8.79v-8.45h-5.92v45.8h6.18v-24.03c0-10.45,6.18-16.54,16.02-16.54,8.71,0,13.76,4.96,13.76,14.63ZM837.56,166.14l-22.37-52.6h-17.31l31.03,71.38-1.2,2.8c-3.2,7.06-6.66,9.85-12.52,9.85-4.53,0-9.05-1.86-12.25-4.93l-6.66,12.25c4.53,4.13,11.99,6.53,19.04,6.53,11.85,0,20.91-4.93,27.43-21.04l33.29-76.84h-15.98l-22.51,52.6ZM764.15,123.93v-10.39h-15.85v71.11h16.65v-34.49c0-14.52,7.99-21.97,20.64-21.97,1.2,0,2.4.13,3.86.4v-15.85c-11.85,0-20.51,3.73-25.3,11.19ZM630.55,123.93v-10.39h-15.85v71.11h16.65v-34.49c0-14.52,7.99-21.97,20.64-21.97,1.2,0,2.4.13,3.86.4v-15.85c-11.85,0-20.51,3.73-25.3,11.19ZM568.37,112.74c-9.06,0-17.05,3.06-22.77,9.46v-34.65h-16.65v97.11h15.85v-9.19c5.59,6.79,13.85,10.12,23.57,10.12,20.78,0,36.09-14.38,36.09-36.49s-15.32-36.36-36.09-36.36ZM566.5,171.34c-11.98,0-21.17-8.66-21.17-22.24s9.19-22.24,21.17-22.24,21.04,8.66,21.04,22.24-9.06,22.24-21.04,22.24ZM263.8,184.65h16.65v-97.11h-16.65v97.11ZM217.46,112.74c-9.06,0-17.05,3.06-22.77,9.46v-34.65h-16.65v97.11h15.85v-9.19c5.59,6.79,13.85,10.12,23.57,10.12,20.77,0,36.09-14.38,36.09-36.49s-15.32-36.36-36.09-36.36ZM215.6,171.34c-11.98,0-21.17-8.66-21.17-22.24s9.19-22.24,21.17-22.24,21.04,8.66,21.04,22.24-9.05,22.24-21.04,22.24ZM958.24,99.93c.44-.37.82-.82,1.12-1.34l5.38-9.32c1.06-1.83.85-4.12-.5-5.74l-37.46-44.64c-2.47,2.29-4.82,4.71-7.05,7.23l28.83,34.36-35.03-26.62c-.98,1.36-1.93,2.74-2.85,4.14l34.33,26.09-39.76-16.69c-.76,1.49-1.48,3-2.17,4.54l40.59,17.03-44.19-7.79c-1.06,3.17-1.97,6.42-2.72,9.72l57.4,10.12c1.49.26,2.99-.16,4.1-1.1ZM279.95,68.87l-2.18-4.44c-1.74,1.57-4.18,2.35-6.79,2.35-5.14,0-7.84-2.96-7.84-8.36v-27.34h13.84v-5.22h-13.84v-10.01h-6.18v42.93c0,8.45,4.79,13.32,13.41,13.32,3.57,0,7.23-1.04,9.58-3.22ZM359.45,126.86c7.06,0,13.45,3.06,17.71,9.85l12.78-7.46c-5.46-10.79-16.51-16.51-30.36-16.51-22.51,0-38.49,15.05-38.49,36.36s15.98,36.49,38.49,36.49c13.85,0,24.9-5.99,30.36-16.65l-12.78-7.46c-4.26,6.79-10.65,9.85-17.71,9.85-12.25,0-21.57-8.39-21.57-22.24s9.32-22.24,21.57-22.24ZM329.6,48.76c0-13.58-9.84-23.25-23.25-23.25s-23.34,9.67-23.34,23.25,9.93,23.34,23.34,23.34,23.25-9.75,23.25-23.34ZM289.29,48.76c0-10.71,7.31-17.85,17.07-17.85s16.98,7.14,16.98,17.85-7.23,17.85-16.98,17.85-17.07-7.14-17.07-17.85ZM302.6,85.84c-5.46,0-9.46,3.99-9.46,9.46s4,9.46,9.46,9.46,9.46-3.99,9.46-9.46-3.99-9.46-9.46-9.46ZM294.21,184.65h16.65v-71.11h-16.65v71.11Z"></path></svg> 